<svg version="1.2" xmlns="http://www.w3.org/2000/svg" viewBox="0 0 203 72" width="203" height="72"><defs><linearGradient id="P" gradientUnits="userSpaceOnUse"/><linearGradient id="g1" x2="1" href="#P" gradientTransform="matrix(227.83,0,0,141.369,60.08,21.3)"><stop stop-color="#633bff"/><stop offset=".22" stop-color="#775cfe"/><stop offset=".69" stop-color="#abb0fc"/><stop offset="1" stop-color="#cfebfb"/></linearGradient></defs><style>.a{fill:#1d194c}.b{fill:url(#g1)}</style><path class="a" d="m137.6 16.3c9.1-2.9 18.7 0.1 20.6 12.4 0.2 1 0.5 3.2 0.5 4.1l-25.3 7.8c1.7 3.8 5.5 5.6 11.4 3.8 4-1.3 7.8-3.7 11.5-8l1.4 10.8c-3.2 2.8-6.9 5-12.7 6.8-12.6 3.9-21.4-2.3-23.1-12.9-1.7-11 3.8-21.1 15.7-24.8zm9.5 14c-0.9-4.6-4.2-6.3-7.9-5.1-5.1 1.6-6.7 5.5-6.7 9.6z"/><path class="a" d="m202.1 17.5l-32.8 51h-12.7l11.7-16.7-9.1-34.3h12.8l3.7 16.5c0.5 2.2 0.7 3.7 0.4 9.3 1.7-5.6 2.4-7.1 3.7-9.3l9.6-16.5c0 0 12.7 0 12.7 0zm-128.1-1.2c-6.3 0-9.7 2.8-15.2 10.7l1.8-3.4c1.2-2.3 1.8-3.9 2.2-6.3l3-17.2h-11.5l-1.5 8.2c4.1 5.1 5.7 12.1 4.6 19.8-1.2 8.8-5.5 16.1-11.8 21.1l-0.8 4.2h11.6l3.1-17.4c1.3-7.1 5.3-9.3 8.3-9.3 2.8 0 5.8 1.8 4.9 7l-3.5 19.7h11.6l3.7-20.9c1.9-10.8-2.9-16.2-10.5-16.2zm-51.3 49.2q0.2 0.9 0.9 1.5 0.7 0.5 1.7 0.5 1.5 0 2.1-1.1l1.1 0.6q-1.1 1.7-3.2 1.7-1.7 0-2.8-1.1-1.1-1.1-1.1-2.7 0-1.7 1.1-2.7 1-1.1 2.7-1.1c1.7 0 1.9 0.4 2.6 1.1q1 1.1 1 2.7 0 0.3 0 0.6zm2.4-3.2q-1 0-1.6 0.5-0.7 0.6-0.8 1.6h4.8q-0.2-1.1-0.8-1.6c-0.7-0.5-1-0.5-1.6-0.5zm5.8 0.9q0 0.4 0.4 0.7 0.4 0.2 1 0.4 0.6 0.2 1.2 0.3 0.6 0.2 1 0.7 0.4 0.5 0.4 1.2 0 1-0.8 1.6-0.7 0.6-1.9 0.6-1.1 0-1.8-0.5-0.8-0.4-1.1-1.2l1.1-0.6q0.2 0.5 0.7 0.8 0.4 0.3 1.1 0.3 0.6 0 1-0.3 0.4-0.2 0.4-0.7 0-0.4-0.4-0.7-0.4-0.2-1-0.4l-1.2-0.4q-0.6-0.1-1-0.6-0.4-0.5-0.4-1.2 0-0.9 0.7-1.5 0.7-0.6 1.8-0.6 0.9 0 1.6 0.4 0.7 0.4 1 1.1l-1 0.6q-0.4-1-1.6-1-0.5 0-0.9 0.3-0.3 0.2-0.3 0.7zm9-0.7h-1.9v3.9q0 0.5 0.2 0.8 0.2 0.2 0.6 0.2 0.5 0 1.1 0v1.1q-1.6 0.2-2.4-0.3-0.8-0.5-0.8-1.8v-3.9h-1.4v-1.2h1.4v-1.7l1.3-0.3v2h1.9c0 0 0 1.2 0 1.2zm2.7 0q0.6-1.4 2.2-1.4v1.4q-0.9-0.1-1.5 0.4-0.7 0.6-0.7 1.8v3.8h-1.3v-7.2h1.3zm8.9-1.2h1.3v7.2h-1.3v-1.3q-0.9 1.5-2.7 1.5-1.5 0-2.6-1.1-1-1.1-1-2.7 0-1.6 1-2.7 1.1-1.1 2.6-1.1 1.8 0 2.7 1.4v-1.2zm-2.5 6.2q1.1 0 1.8-0.8 0.7-0.7 0.7-1.8 0-1.1-0.7-1.8-0.7-0.8-1.8-0.8-1.1 0-1.8 0.8-0.8 0.7-0.8 1.8 0 1.1 0.8 1.8 0.7 0.8 1.8 0.8zm9.5-5h-1.9v3.9q0 0.5 0.2 0.8 0.2 0.2 0.6 0.2 0.5 0 1.1 0v1.1q-1.6 0.2-2.4-0.3-0.8-0.4-0.8-1.8v-3.9h-1.4v-1.2h1.4v-1.7l1.3-0.3v2h1.9c0 0 0 1.2 0 1.2zm1.9 3q0.2 0.9 0.9 1.5 0.7 0.5 1.7 0.5 1.5 0 2.1-1l1.1 0.6q-1.1 1.6-3.2 1.6-1.7 0-2.8-1.1-1.1-1.1-1.1-2.7 0-1.6 1.1-2.7 1-1.1 2.7-1.1c1.7 0 1.9 0.4 2.6 1.1q1 1.1 1 2.7 0 0.3 0 0.6zm2.5-3.2q-1 0-1.7 0.6-0.7 0.5-0.8 1.5h4.8q-0.2-1-0.8-1.6c-0.7-0.5-1-0.5-1.5-0.5zm10.9-1h1.2v6.9q0 1.6-1.1 2.5-1.1 0.9-2.6 0.9-1.2 0-2.1-0.5-0.9-0.4-1.3-1.3l1.1-0.6q0.6 1.2 2.3 1.2 1.2 0 1.8-0.6 0.7-0.6 0.7-1.6v-1q-1 1.4-2.8 1.4-1.5 0-2.6-1.1-1-1.1-1-2.6 0-1.6 1-2.7 1.1-1.1 2.6-1.1 1.8 0 2.8 1.4c0 0 0-1.2 0-1.2zm-4.4 5.4q0.7 0.7 1.8 0.7 1.1 0 1.8-0.7 0.8-0.8 0.8-1.8 0-1.1-0.8-1.9-0.7-0.7-1.8-0.7-1.1 0-1.8 0.7-0.8 0.8-0.8 1.9 0 1 0.8 1.8zm8-6.7q-0.3 0-0.6-0.3-0.2-0.2-0.2-0.6 0-0.3 0.2-0.6 0.3-0.2 0.6-0.2 0.4 0 0.6 0.2 0.3 0.3 0.3 0.6 0 0.4-0.3 0.6-0.2 0.3-0.6 0.3zm-0.6 8.5v-7.2h1.2v7.2zm9.1-7.2h1.2v7.2h-1.2v-1.2q-1 1.4-2.7 1.4-1.6 0-2.6-1.1-1.1-1.1-1.1-2.7 0-1.6 1.1-2.7 1-1.1 2.6-1.1 1.7 0 2.7 1.4v-1.2zm-2.6 6.2q1.1 0 1.8-0.7 0.8-0.8 0.8-1.9 0-1.1-0.8-1.8-0.7-0.8-1.8-0.8-1.1 0-1.8 0.8-0.7 0.7-0.7 1.8 0 1.1 0.7 1.9 0.7 0.7 1.8 0.7zm6.7-4.3q0 0.4 0.4 0.7 0.4 0.2 1 0.4 0.6 0.2 1.2 0.4 0.6 0.1 1 0.6 0.4 0.5 0.4 1.3 0 0.9-0.7 1.5-0.8 0.6-2 0.6-1 0-1.8-0.4-0.7-0.5-1-1.3l1-0.6q0.2 0.5 0.7 0.8 0.5 0.3 1.1 0.3 0.7 0 1.1-0.2 0.3-0.3 0.4-0.8 0-0.4-0.5-0.6-0.4-0.3-1-0.5l-1.2-0.3q-0.6-0.2-1-0.7-0.4-0.4-0.4-1.1 0-1 0.7-1.6 0.8-0.6 1.9-0.6 0.9 0 1.5 0.4 0.7 0.4 1.1 1.1l-1.1 0.6q-0.4-0.9-1.5-0.9-0.6 0-0.9 0.2-0.4 0.3-0.4 0.7zm14.9-4.8h1.2v10.1h-1.2v-1.2q-1 1.4-2.7 1.4-1.6 0-2.6-1.1-1.1-1.1-1.1-2.7 0-1.6 1.1-2.7 1-1.1 2.6-1.1 1.7 0 2.7 1.5v-4.2zm-2.6 9.1q1.1 0 1.8-0.7 0.8-0.8 0.8-1.9 0-1.1-0.8-1.8-0.7-0.7-1.8-0.7-1.1 0-1.8 0.7-0.7 0.7-0.7 1.8 0 1.1 0.7 1.9 0.7 0.7 1.8 0.7zm6.3-7.5q-0.4 0-0.6-0.2-0.3-0.3-0.3-0.6 0-0.4 0.3-0.6 0.2-0.3 0.6-0.3 0.3 0 0.6 0.3 0.2 0.2 0.2 0.6c0 0.3-0.1 0.4-0.2 0.6q-0.3 0.2-0.6 0.2zm-0.7 8.5v-7.2h1.3v7.2zm9-7.2h1.3v6.9q0 1.6-1.1 2.5-1.1 0.9-2.6 0.9-1.2 0-2.1-0.4-0.9-0.5-1.3-1.3l1.1-0.7q0.6 1.3 2.3 1.3 1.2-0.1 1.8-0.6 0.7-0.6 0.6-1.7v-1q-0.9 1.5-2.7 1.5-1.5 0-2.6-1.1-1-1.1-1-2.7 0-1.6 1-2.7 1.1-1.1 2.6-1.1 1.8 0 2.7 1.5c0 0 0-1.3 0-1.3zm-4.4 5.4q0.8 0.8 1.9 0.8 1.1 0 1.8-0.8 0.7-0.7 0.7-1.8 0-1.1-0.7-1.8-0.7-0.8-1.8-0.8-1.1 0-1.9 0.8-0.7 0.7-0.7 1.8 0 1.1 0.7 1.8zm8.1-6.7q-0.3 0-0.6-0.2-0.2-0.3-0.3-0.6 0-0.4 0.3-0.6 0.2-0.3 0.6-0.3 0.4 0 0.6 0.3 0.2 0.2 0.2 0.6c0 0.3 0 0.4-0.2 0.6q-0.2 0.2-0.6 0.2zm-0.6 8.5v-7.2h1.2v7.2zm7-6h-1.9v4q0 0.5 0.2 0.7 0.2 0.2 0.7 0.2 0.4 0 1 0v1.2q-1.6 0.2-2.4-0.3-0.7-0.5-0.8-1.8v-4h-1.4v-1.2h1.4v-1.6l1.3-0.4v2h1.9c0 0 0 1.2 0 1.2zm7-1.2h1.3v7.2h-1.3v-1.2q-0.9 1.4-2.7 1.4-1.5 0-2.6-1.1-1.1-1.1-1.1-2.7 0-1.6 1.1-2.6 1.1-1.2 2.6-1.1 1.8 0 2.7 1.4v-1.3zm-2.6 6.2q1.1 0 1.9-0.7 0.7-0.7 0.7-1.8 0-1.1-0.7-1.9-0.8-0.7-1.9-0.7-1.1 0-1.8 0.7-0.7 0.8-0.7 1.9 0 1.1 0.7 1.8 0.8 0.7 1.8 0.7zm5.7 1.1v-10.6h1.2v10.6zm4-3.1q0.1 1 0.8 1.5 0.7 0.6 1.8 0.6 1.4 0 2.1-1.1l1 0.6q-1 1.7-3.2 1.7-1.7 0-2.7-1.1-1.1-1.1-1.1-2.7 0-1.7 1-2.8 1.1-1 2.8-1 1.5 0 2.5 1.1 1.1 1.1 1 2.7 0.1 0.2 0 0.5zm2.5-3.2q-1 0-1.7 0.6-0.6 0.6-0.8 1.5h4.8q-0.1-1-0.8-1.5c-0.6-0.6-0.9-0.6-1.5-0.6zm5.7 1q0 0.4 0.5 0.6 0.4 0.3 1 0.5 0.6 0.1 1.1 0.3 0.6 0.2 1.1 0.7 0.4 0.4 0.4 1.2 0 1-0.8 1.6-0.8 0.5-1.9 0.6-1.1 0-1.8-0.5-0.8-0.5-1.1-1.2l1.1-0.7q0.2 0.6 0.6 0.9 0.5 0.3 1.2 0.3 0.6 0 1-0.3 0.4-0.2 0.4-0.7 0-0.4-0.4-0.7-0.1-0.1-0.3-0.1-0.1-0.1-0.2-0.1-0.1-0.1-0.3-0.1-0.1-0.1-0.2-0.1l-1.2-0.4q-0.6-0.2-1-0.6-0.4-0.5-0.5-1.2 0-0.9 0.8-1.5 0.7-0.6 1.8-0.6 0.9-0.1 1.6 0.4 0.7 0.4 1 1.1l-1 0.5q-0.4-0.9-1.6-0.9-0.5 0-0.9 0.3-0.4 0.2-0.4 0.7z"/><path class="a" d="m54.9 27.9c-2 14.7-13.8 26.7-31 26.7-17.3 0-25.5-12-23.5-26.7 2.1-14.7 13.8-26.7 31-26.7 17.3 0 25.6 12 23.5 26.7zm-16.9 12.7c6.2-6.6 5.7-16.7 0-23.7-5.7-7.1-14.4-8.4-20.6-1.8-6.2 6.6-5.7 16.7 0 23.8 5.7 7 14.4 8.3 20.6 1.7zm55.4-3.2q-0.4-0.7-0.6-1.5c-1-3.4-2.4-6.6-4.1-9.7l-4.8 27.2h11.6l1.9-10.8c0.1-0.6 0.2-1 0.2-1.6-1.8-0.5-3.4-1.8-4.2-3.6zm9.1 3.4q-1 0.4-2 0.5l6.3 12.1h14.2l-11.4-19.1q-1.5 1.6-3 3.2c-1.2 1.3-2.5 2.5-4.1 3.3zm-1.7-17.3l4.1-23.4h-11.6l-1.7 9.5q1.3 0.4 2.4 1.5c3.3 3.5 5.4 7.8 6.8 12.4z"/><path class="b" d="m151.9 1.3c-0.4-0.1-0.8-0.1-1.2-0.1q-1.4 0.2-2.7 0.4c-7.8 1.5-15.2 4.2-22.3 7.7-8.8 4.2-16.8 9.6-23.7 16.4-0.1 0.2-0.3 0.4-0.5 0.6-0.3-1-0.5-1.8-0.7-2.7q0-0.1-0.1-0.1v-0.2c-1.4-4.6-3.5-8.7-6.8-12.2q-1-1.1-2.3-1.5 0 0-0.1-0.1v0.1l-2.9 16.5q0 0.1 0.1 0.1c1.7 3.1 3.1 6.3 4.1 9.7q0.2 0.8 0.6 1.5c0.7 1.8 2.3 3 4.1 3.6q0.1 0 0.1 0 1.4 0.5 2.8 0.3h0.1q1-0.1 2-0.5c1.6-0.8 2.9-2 4.1-3.3q1.4-1.6 2.9-3.1l0.1-0.1c7.4-7.6 15.5-14.2 24.3-20.1 4.8-3.2 9.7-6.1 15-8.2 1-0.3 2-0.6 3-1 0.9-0.4 1.4-1.1 1.4-2-0.1-0.8-0.6-1.4-1.4-1.7z"/></svg>